<svg width="24" height="24" viewBox="0 0 24 24" fill="none" xmlns="http://www.w3.org/2000/svg">
<path d="M12.0002 0.333328C10.4681 0.333328 8.95099 0.635096 7.53552 1.2214C6.12006 1.80771 4.83393 2.66707 3.75058 3.75042C1.56266 5.93834 0.333496 8.9058 0.333496 12C0.333496 15.0942 1.56266 18.0617 3.75058 20.2496C4.83393 21.3329 6.12006 22.1923 7.53552 22.7786C8.95099 23.3649 10.4681 23.6667 12.0002 23.6667C15.0944 23.6667 18.0618 22.4375 20.2497 20.2496C22.4377 18.0617 23.6668 15.0942 23.6668 12C23.6668 10.4679 23.3651 8.95082 22.7788 7.53535C22.1925 6.11989 21.3331 4.83377 20.2497 3.75042C19.1664 2.66707 17.8803 1.80771 16.4648 1.2214C15.0493 0.635096 13.5323 0.333328 12.0002 0.333328ZM6.2485 19.3267C6.75016 18.2767 9.80683 17.25 12.0002 17.25C14.1935 17.25 17.2502 18.2767 17.7518 19.3267C16.1178 20.6287 14.0895 21.3363 12.0002 21.3333C9.83016 21.3333 7.83516 20.5867 6.2485 19.3267ZM19.4202 17.635C17.7518 15.605 13.7035 14.9167 12.0002 14.9167C10.2968 14.9167 6.2485 15.605 4.58016 17.635C3.33905 16.0187 2.66644 14.0378 2.66683 12C2.66683 6.855 6.85516 2.66666 12.0002 2.66666C17.1452 2.66666 21.3335 6.855 21.3335 12C21.3335 14.1233 20.6102 16.0833 19.4202 17.635ZM12.0002 5C9.73683 5 7.91683 6.82 7.91683 9.08333C7.91683 11.3467 9.73683 13.1667 12.0002 13.1667C14.2635 13.1667 16.0835 11.3467 16.0835 9.08333C16.0835 6.82 14.2635 5 12.0002 5ZM12.0002 10.8333C11.536 10.8333 11.0909 10.649 10.7627 10.3208C10.4345 9.99258 10.2502 9.54746 10.2502 9.08333C10.2502 8.6192 10.4345 8.17408 10.7627 7.84589C11.0909 7.5177 11.536 7.33333 12.0002 7.33333C12.4643 7.33333 12.9094 7.5177 13.2376 7.84589C13.5658 8.17408 13.7502 8.6192 13.7502 9.08333C13.7502 9.54746 13.5658 9.99258 13.2376 10.3208C12.9094 10.649 12.4643 10.8333 12.0002 10.8333Z" fill="#025A4E"/>
</svg>
